<svg width="138" height="18" xmlns="http://www.w3.org/2000/svg">
<path fill-rule="evenodd" clip-rule="evenodd" d="m14,0l-2,0l0,17.87542l2,0l0,-17.87542zm-8,4.17093l2,0l0,10.1294l-2,0l0,-10.1294zm25,1.19169l-2,0l0,7.15017l2,0l0,-7.15017zm-29,1.19169l-2,0l0,4.76678l2,0l0,-4.76678zm57,1.19169l-2,0l0,2.97924l2,0l0,-2.97924zm-13,-1.19169l2,0l0,4.76678l-2,0l0,-4.76678zm47,0l-2,0l0,4.76678l2,0l0,-4.76678zm14,0l2,0l0,4.76678l-2,0l0,-4.76678zm-87,-2.38339l-2,0l0,10.1294l2,0l0,-10.1294zm15,0l2,0l0,10.1294l-2,0l0,-10.1294zm18,0l-2,0l0,10.1294l2,0l0,-10.1294zm16,0l2,0l0,10.1294l-2,0l0,-10.1294zm18,0l-2,0l0,10.1294l2,0l0,-10.1294zm15,0l2,0l0,10.1294l-2,0l0,-10.1294zm-78,-4.17093l2,0l0,17.87542l-2,0l0,-17.87542zm19,0l-2,0l0,17.87542l2,0l0,-17.87542zm20,0l2,0l0,17.87542l-2,0l0,-17.87542zm13,0l-2,0l0,17.87542l2,0l0,-17.87542zm4,0l2,0l0,17.87542l-2,0l0,-17.87542zm18,0l-2,0l0,17.87542l2,0l0,-17.87542z" fill="#fff" />
<path fill-rule="evenodd" clip-rule="evenodd" d="m120.97995,0.00005l-2,0l0,17.87542l2,0l0,-17.87542zm-8,4.17093l2,0l0,10.1294l-2,0l0,-10.1294zm25,1.1917l-2,0l0,7.15016l2,0l0,-7.15016zm-29,1.19169l-2,0l0,4.76678l2,0l0,-4.76678zm57,1.19169l-2,0l0,2.97924l2,0l0,-2.97924zm-13,-1.19169l2,0l0,4.76678l-2,0l0,-4.76678zm47,0l-2,0l0,4.76678l2,0l0,-4.76678zm14,0l2,0l0,4.76678l-2,0l0,-4.76678zm-87,-2.38339l-2,0l0,10.1294l2,0l0,-10.1294zm15,0l2,0l0,10.1294l-2,0l0,-10.1294zm18,0l-2,0l0,10.1294l2,0l0,-10.1294zm16,0l2,0l0,10.1294l-2,0l0,-10.1294zm18,0l-2,0l0,10.1294l2,0l0,-10.1294zm15,0l2,0l0,10.1294l-2,0l0,-10.1294zm-78,-4.17093l2,0l0,17.87542l-2,0l0,-17.87542zm19" fill="#fff" />
</svg>